<svg enable-background="new 0 0 144 144" viewBox="0 0 144 144" xmlns="http://www.w3.org/2000/svg"><path d="m30.169 64.158v-24.67c0-2.126 1.739-3.865 3.865-3.865h75.472c2.126 0 3.865 1.739 3.865 3.865v11.125" fill="none" stroke="#3d6cb4" stroke-linecap="round" stroke-linejoin="round" stroke-miterlimit="10"/><path d="m113.371 87.08v18.913c0 2.126-1.739 3.865-3.865 3.865h-75.472c-2.126 0-3.865-1.739-3.865-3.865v-13.704" fill="none" stroke="#3d6cb4" stroke-linecap="round" stroke-linejoin="round" stroke-miterlimit="10"/><path d="m30.169 43.436v-3.836c0-2.187 1.789-3.977 3.977-3.977h75.25c2.187 0 3.977 1.789 3.977 3.977v3.836z" fill="#528ac8" opacity=".3"/><path d="m30.169 43.436v-3.836c0-2.187 1.789-3.977 3.977-3.977h75.25c2.187 0 3.977 1.789 3.977 3.977v3.836z" fill="none" stroke="#3d6cb4" stroke-linecap="round" stroke-linejoin="round" stroke-miterlimit="10"/><circle cx="35.238" cy="39.53" fill="#3d6cb4" r=".88"/><circle cx="38.754" cy="39.53" fill="#3d6cb4" r=".88"/><path d="m106.926 59.673h-70.312c-1.329 0-2.417-1.088-2.417-2.417v-5.238c0-1.329 1.088-2.417 2.417-2.417h70.311c1.329 0 2.417 1.088 2.417 2.417v5.238c0 1.329-1.087 2.417-2.416 2.417z" fill="#528ac8" opacity=".3"/><path d="m106.926 76.994h-70.312c-1.329 0-2.417-1.088-2.417-2.417v-5.238c0-1.329 1.088-2.417 2.417-2.417h70.311c1.329 0 2.417 1.087 2.417 2.417v5.238c0 1.33-1.087 2.417-2.416 2.417z" fill="#528ac8" opacity=".3"/><path d="m106.926 94.316h-70.312c-1.329 0-2.417-1.088-2.417-2.417v-5.238c0-1.329 1.088-2.417 2.417-2.417h70.311c1.329 0 2.417 1.088 2.417 2.417v5.239c0 1.329-1.087 2.416-2.416 2.416z" fill="#528ac8" opacity=".3"/><circle cx="42.27" cy="39.53" fill="#3d6cb4" r=".88"/><g stroke="#3d6cb4" stroke-linecap="round" stroke-linejoin="round" stroke-miterlimit="10"><path d="m130.558 50.555h-33.184c-5.731 0-10.514 4.785-10.514 10.515v15.158c0 5.731 4 10.852 10 10.852v9.465l10.769-8.99h22.929c5.731 0 10.302-5.597 10.302-11.327v-15.158c0-5.73-4.571-10.515-10.302-10.515z" fill="#fff"/><path d="m27.017 64.555h25.952c4.482 0 7.891 3.079 7.891 7.561v11.854c0 4.291-3.451 7.859-7.648 8.155.001.02-.352.02-.352.02v7.714l-7.912-7.304h-17.931c-4.482 0-8.157-4.103-8.157-8.585v-11.854c0-4.482 3.675-7.561 8.157-7.561z" fill="#fff"/><path d="m27.017 64.555h25.952c4.482 0 7.891 3.079 7.891 7.561v11.854c0 4.291-3.451 7.859-7.648 8.155.001.02-.352.02-.352.02v7.714l-7.912-7.304h-17.931c-4.482 0-8.157-4.103-8.157-8.585v-11.854c0-4.482 3.675-7.561 8.157-7.561z" fill="none"/><path d="m25.36 71.555h27" fill="#fff"/><path d="m25.36 77.555h23" fill="#fff"/><path d="m25.36 83.555h16" fill="#fff"/><path d="m96.36 59.555h34" fill="#fff"/><path d="m96.36 67.555h25" fill="#fff"/><path d="m96.36 74.555h17" fill="#fff"/><path d="m6.751 35.481v9.767" fill="none"/><path d="m1.868 40.364h9.767" fill="none"/><path d="m17.886 51.071v5.847" fill="none"/><path d="m14.963 53.995h5.847" fill="none"/><path d="m133.937 97.06v9.767" fill="none"/><path d="m129.054 101.943h9.767" fill="none"/></g></svg>