<?xml version="1.0" encoding="utf-8"?><svg xmlns="http://www.w3.org/2000/svg" xmlns:xlink="http://www.w3.org/1999/xlink"><symbol viewBox="0 0 24 24" id="apple" xmlns="http://www.w3.org/2000/svg"><path d="M7.078 23.55a5.378 5.378 0 01-1.244-1.15c-.383-.463-.738-.95-1.064-1.454a14.065 14.065 0 01-1.78-3.636c-.5-1.502-.743-2.94-.743-4.347 0-1.57.34-2.94 1.002-4.09a5.78 5.78 0 012.1-2.182 5.6 5.6 0 012.84-.84c.35 0 .73.05 1.13.15.29.08.64.21 1.07.37.55.21.85.34.95.37.32.12.59.17.8.17.16 0 .39-.05.645-.13.145-.05.42-.14.81-.31.386-.14.692-.26.935-.35.37-.11.728-.21 1.05-.26.39-.06.777-.08 1.148-.05.71.05 1.36.2 1.94.42 1.02.41 1.843 1.05 2.457 1.96-.26.16-.5.346-.725.55-.487.43-.9.94-1.23 1.505a5.1 5.1 0 00-.644 2.52c.015 1.083.29 2.035.84 2.86a5.33 5.33 0 001.534 1.536c.31.21.582.355.84.45-.12.375-.252.74-.405 1.1-.347.807-.76 1.58-1.25 2.31-.432.63-.772 1.1-1.03 1.41-.402.48-.79.84-1.18 1.097-.43.285-.935.436-1.452.436-.35.015-.7-.03-1.034-.127-.29-.095-.576-.202-.856-.323a6.94 6.94 0 00-.905-.34 4.52 4.52 0 00-1.164-.147c-.4 0-.79.05-1.16.145-.31.088-.61.196-.907.325-.42.175-.695.29-.855.34a4.47 4.47 0 01-.99.175c-.52 0-1.004-.15-1.486-.45zm6.854-18.46c-.68.34-1.326.484-1.973.436-.1-.646 0-1.31.27-2.037.24-.62.56-1.18 1-1.68.46-.52 1.01-.95 1.63-1.26.66-.34 1.29-.52 1.89-.55.08.68 0 1.35-.25 2.07a5.938 5.938 0 01-1 1.76c-.435.52-.975.95-1.586 1.26z"/></symbol><symbol viewBox="0 0 24 24" id="applepay" xmlns="http://www.w3.org/2000/svg"><path d="M4.388 8.284c-.282.337-.732.602-1.182.564-.056-.455.164-.938.422-1.237C3.91 7.265 4.402 7.02 4.8 7c.047.474-.136.938-.412 1.284zm.407.654c-.651-.038-1.21.375-1.518.375-.315 0-.788-.356-1.304-.346-.67.01-1.293.393-1.635 1.005C-.366 11.194.155 13.005.834 14c.333.493.732 1.033 1.257 1.014.496-.019.693-.327 1.293-.327.605 0 .778.327 1.304.318.543-.01.885-.493 1.218-.986.38-.56.535-1.104.544-1.133-.01-.01-1.05-.412-1.06-1.625-.009-1.015.82-1.498.858-1.526-.468-.702-1.2-.778-1.453-.797zM8.56 7.564v7.389h1.135v-2.526h1.57c1.434 0 2.442-.996 2.442-2.436 0-1.441-.989-2.427-2.404-2.427H8.559zm1.135.967h1.308c.984 0 1.546.53 1.546 1.464 0 .934-.562 1.47-1.551 1.47H9.694V8.53zm6.084 6.478c.713 0 1.374-.364 1.674-.943h.023v.887h1.05v-3.678c0-1.066-.844-1.754-2.142-1.754-1.205 0-2.095.697-2.128 1.654h1.022c.084-.455.501-.753 1.073-.753.694 0 1.083.327 1.083.929v.407l-1.416.086c-1.317.08-2.03.625-2.03 1.573 0 .957.736 1.592 1.791 1.592zm.305-.876c-.605 0-.99-.294-.99-.744 0-.465.371-.735 1.079-.778l1.26-.08v.417c0 .692-.58 1.185-1.35 1.185zm3.844 2.83c1.106 0 1.626-.427 2.08-1.721L24 9.592h-1.153l-1.336 4.365h-.023l-1.336-4.365h-1.186l1.921 5.38-.103.327c-.173.554-.454.767-.956.767a3.7 3.7 0 01-.333-.019v.887c.066.019.347.028.432.028z"/></symbol><symbol viewBox="0 0 24 24" id="appletv" xmlns="http://www.w3.org/2000/svg"><path d="M20.57 17.735h-1.815l-3.34-9.203h1.633l2.02 5.987c.075.231.273.9.586 2.012l.297-.997.33-1.006 2.094-6.004H24zm-5.344-.066a5.76 5.76 0 01-1.55.207c-1.23 0-1.84-.693-1.84-2.087V9.646h-1.063V8.532h1.121V7.081l1.476-.602v2.062h1.707v1.113H13.38v5.805c0 .446.074.75.214.932.14.182.396.264.75.264.207 0 .495-.041.883-.115zm-7.29-5.343c.017 1.764 1.55 2.358 1.567 2.366-.017.042-.248.842-.808 1.658-.487.71-.99 1.418-1.79 1.435-.783.016-1.03-.462-1.93-.462-.89 0-1.17.445-1.913.478-.758.025-1.344-.775-1.838-1.484-.998-1.451-1.765-4.098-.734-5.88.51-.89 1.426-1.451 2.416-1.46.75-.016 1.468.512 1.93.512.461 0 1.327-.627 2.234-.536.38.016 1.452.157 2.136 1.154-.058.033-1.278.743-1.27 2.219M6.468 7.988c.404-.495.685-1.18.61-1.864-.585.025-1.294.388-1.723.883-.38.437-.71 1.138-.619 1.806.652.05 1.328-.338 1.732-.825z"/></symbol><symbol viewBox="0 0 64 64" id="checked-circle" xmlns="http://www.w3.org/2000/svg"><g fill="none" stroke="#000" stroke-miterlimit="10" stroke-width="2" stroke-linejoin="round" stroke-linecap="round"><circle cx="32" cy="32" r="30" transform="rotate(-45 32 32)"/><path d="M20.998 32.015l8.992 8.992 16.011-16.011"/></g></symbol><symbol viewBox="0 0 24 24" id="googleplay" xmlns="http://www.w3.org/2000/svg"><path d="M1.22 0c-.03.093-.06.185-.06.308v23.229c0 .217.061.34.184.463l11.415-12.093L1.22 0zm12.309 12.708l2.951 3.045-4.213 2.4s-5.355 3.044-8.308 4.739l9.57-10.184zm.801-.831l3.166 3.292c.496-.276 4.371-2.492 4.924-2.8.584-.338.525-.8.029-1.046-.459-.255-4.334-2.475-4.92-2.835l-3.203 3.392.004-.003zm-.803-.8l2.984-3.169-4.259-2.431S5.309 1.505 2.999.179l10.53 10.898h-.002z"/></symbol><symbol viewBox="0 0 144 144" id="media-3-84109" xmlns="http://www.w3.org/2000/svg"><path d="M30.169 64.158v-24.67a3.876 3.876 0 013.865-3.865h75.472a3.876 3.876 0 013.865 3.865v11.125M113.371 87.08v18.913a3.876 3.876 0 01-3.865 3.865H34.034a3.876 3.876 0 01-3.865-3.865V92.289" fill="none" stroke="#3d6cb4" stroke-linecap="round" stroke-linejoin="round" stroke-miterlimit="10"/><path d="M30.169 43.436V39.6a3.988 3.988 0 013.977-3.977h75.25a3.988 3.988 0 013.977 3.977v3.836z" fill="#528ac8" opacity=".3"/><path d="M30.169 43.436V39.6a3.988 3.988 0 013.977-3.977h75.25a3.988 3.988 0 013.977 3.977v3.836z" fill="none" stroke="#3d6cb4" stroke-linecap="round" stroke-linejoin="round" stroke-miterlimit="10"/><circle cx="35.238" cy="39.53" fill="#3d6cb4" r=".88"/><circle cx="38.754" cy="39.53" fill="#3d6cb4" r=".88"/><path d="M106.926 59.673H36.614a2.425 2.425 0 01-2.417-2.417v-5.238a2.425 2.425 0 012.417-2.417h70.311a2.425 2.425 0 012.417 2.417v5.238a2.424 2.424 0 01-2.416 2.417zM106.926 76.994H36.614a2.425 2.425 0 01-2.417-2.417v-5.238a2.425 2.425 0 012.417-2.417h70.311a2.424 2.424 0 012.417 2.417v5.238a2.423 2.423 0 01-2.416 2.417zM106.926 94.316H36.614a2.425 2.425 0 01-2.417-2.417v-5.238a2.425 2.425 0 012.417-2.417h70.311a2.425 2.425 0 012.417 2.417V91.9a2.423 2.423 0 01-2.416 2.416z" fill="#528ac8" opacity=".3"/><circle cx="42.27" cy="39.53" fill="#3d6cb4" r=".88"/><g stroke="#3d6cb4" stroke-linecap="round" stroke-linejoin="round" stroke-miterlimit="10"><path d="M130.558 50.555H97.374c-5.731 0-10.514 4.785-10.514 10.515v15.158c0 5.731 4 10.852 10 10.852v9.465l10.769-8.99h22.929c5.731 0 10.302-5.597 10.302-11.327V61.07c0-5.73-4.571-10.515-10.302-10.515zM27.017 64.555h25.952c4.482 0 7.891 3.079 7.891 7.561V83.97c0 4.291-3.451 7.859-7.648 8.155.001.02-.352.02-.352.02v7.714l-7.912-7.304H27.017c-4.482 0-8.157-4.103-8.157-8.585V72.116c0-4.482 3.675-7.561 8.157-7.561z" fill="#fff"/><path d="M27.017 64.555h25.952c4.482 0 7.891 3.079 7.891 7.561V83.97c0 4.291-3.451 7.859-7.648 8.155.001.02-.352.02-.352.02v7.714l-7.912-7.304H27.017c-4.482 0-8.157-4.103-8.157-8.585V72.116c0-4.482 3.675-7.561 8.157-7.561z" fill="none"/><path d="M25.36 71.555h27M25.36 77.555h23M25.36 83.555h16M96.36 59.555h34M96.36 67.555h25M96.36 74.555h17" fill="#fff"/><path d="M6.751 35.481v9.767M1.868 40.364h9.767M17.886 51.071v5.847M14.963 53.995h5.847M133.937 97.06v9.767M129.054 101.943h9.767" fill="none"/></g></symbol><symbol viewBox="0 0 24 24" id="microsoft" xmlns="http://www.w3.org/2000/svg"><path d="M11.4 24H0V12.6h11.4V24zM24 24H12.6V12.6H24V24zM11.4 11.4H0V0h11.4v11.4zm12.6 0H12.6V0H24v11.4z"/></symbol><symbol viewBox="0 0 20 20" id="play-circle-filled" xmlns="http://www.w3.org/2000/svg"><g fill="none" fill-rule="evenodd"><path d="M-2-2h24v24H-2z"/><path d="M10 18c4.41 0 8-3.59 8-8s-3.59-8-8-8-8 3.59-8 8 3.59 8 8 8zM8 5.5l6 4.5-6 4.5v-9z" fill="#D0D0D0"/><path d="M10 20c5.52 0 10-4.48 10-10S15.52 0 10 0 0 4.48 0 10s4.48 10 10 10zm0-18c4.41 0 8 3.59 8 8s-3.59 8-8 8-8-3.59-8-8 3.59-8 8-8zM8 5.5v9l6-4.5-6-4.5z" fill="#1D1D1D"/></g></symbol></svg>