<?xml version="1.0" encoding="utf-8"?><svg xmlns="http://www.w3.org/2000/svg" xmlns:xlink="http://www.w3.org/1999/xlink"><symbol viewBox="0 0 24 24" id="icon-arrow-bottom-left"><path d="M6.707 18H11.5a.5.5 0 110 1h-6a.5.5 0 01-.5-.5v-6a.5.5 0 111 0v4.793L17.146 6.146a.5.5 0 01.708.708L6.707 18z"/></symbol><symbol viewBox="0 0 24 24" id="icon-arrow-bottom-right"><path d="M17 16.293V11.5a.5.5 0 111 0v6a.5.5 0 01-.5.5h-6a.5.5 0 110-1h4.793L6.146 6.854a.5.5 0 11.708-.708L17 16.293z"/></symbol><symbol viewBox="0 0 24 24" id="icon-arrow-circle-down"><path d="M13 16.293l3.146-3.147a.5.5 0 01.708.708l-4 4a.5.5 0 01-.708 0l-4-4a.5.5 0 01.708-.708L12 16.293V7.5a.5.5 0 111 0v8.793zm9-3.793a9.5 9.5 0 11-19 0 9.5 9.5 0 0119 0zm-1 0a8.5 8.5 0 10-17 0 8.5 8.5 0 0017 0z"/></symbol><symbol viewBox="0 0 24 24" id="icon-arrow-circle-left"><path d="M12.5 22a9.5 9.5 0 110-19 9.5 9.5 0 010 19zm0-1a8.5 8.5 0 100-17 8.5 8.5 0 000 17zm-3.793-9H17.5a.5.5 0 110 1H8.707l3.147 3.146a.5.5 0 01-.708.708l-4-4a.5.5 0 010-.708l4-4a.5.5 0 01.708.708L8.707 12z"/></symbol><symbol viewBox="0 0 24 24" id="icon-arrow-circle-right"><path d="M16.293 12l-3.147-3.146a.5.5 0 01.708-.708l4 4a.5.5 0 010 .708l-4 4a.5.5 0 01-.708-.708L16.293 13H7.5a.5.5 0 110-1h8.793zM12.5 22a9.5 9.5 0 110-19 9.5 9.5 0 010 19zm0-1a8.5 8.5 0 100-17 8.5 8.5 0 000 17z"/></symbol><symbol viewBox="0 0 24 24" id="icon-arrow-circle-up"><path d="M13 8.707V17.5a.5.5 0 11-1 0V8.707l-3.146 3.147a.5.5 0 01-.708-.708l4-4a.5.5 0 01.708 0l4 4a.5.5 0 01-.708.708L13 8.707zm9 3.793a9.5 9.5 0 11-19 0 9.5 9.5 0 0119 0zm-1 0a8.5 8.5 0 10-17 0 8.5 8.5 0 0017 0z"/></symbol><symbol viewBox="0 0 24 24" id="icon-arrow-down"><path d="M13 16.293l3.146-3.147a.5.5 0 01.708.708l-4 4a.5.5 0 01-.708 0l-4-4a.5.5 0 01.708-.708L12 16.293V6.5a.5.5 0 111 0v9.793z"/></symbol><symbol viewBox="0 0 24 24" id="icon-arrow-left"><path d="M8.707 12H18.5a.5.5 0 110 1H8.707l3.147 3.146a.5.5 0 01-.708.708l-4-4a.5.5 0 010-.708l4-4a.5.5 0 01.708.708L8.707 12z"/></symbol><symbol viewBox="0 0 24 24" id="icon-arrow-right"><path d="M17.293 13H7.5a.5.5 0 110-1h9.793l-3.147-3.146a.5.5 0 01.708-.708l4 4a.5.5 0 010 .708l-4 4a.5.5 0 01-.708-.708L17.293 13z"/></symbol><symbol viewBox="0 0 24 24" id="icon-arrow-square-down"><path d="M5.5 3l14-.007a2.5 2.5 0 012.5 2.5V19.5a2.5 2.5 0 01-2.5 2.5h-14A2.5 2.5 0 013 19.5v-14A2.508 2.508 0 015.5 3zM4 19.5A1.5 1.5 0 005.5 21h14a1.5 1.5 0 001.5-1.5V5.493a1.5 1.5 0 00-1.5-1.5L5.5 4A1.5 1.5 0 004 5.5v14zm9-3.207l3.146-3.147a.5.5 0 01.708.708l-4 4a.5.5 0 01-.708 0l-4-4a.5.5 0 01.708-.708L12 16.293V7.5a.5.5 0 111 0v8.793z"/></symbol><symbol viewBox="0 0 24 24" id="icon-arrow-square-left"><path d="M8.707 13l3.147 3.146a.5.5 0 01-.708.708l-4-4a.5.5 0 010-.708l4-4a.5.5 0 01.708.708L8.707 12H17.5a.5.5 0 110 1H8.707zM5.5 4A1.5 1.5 0 004 5.5v14A1.5 1.5 0 005.5 21h14.007a1.5 1.5 0 001.5-1.5L21 5.5A1.5 1.5 0 0019.5 4h-14zM22 5.5l.007 14a2.5 2.5 0 01-2.5 2.5H5.5A2.5 2.5 0 013 19.5v-14A2.5 2.5 0 015.5 3h14A2.508 2.508 0 0122 5.5z"/></symbol><symbol viewBox="0 0 24 24" id="icon-arrow-square-right"><path d="M16.293 12l-3.147-3.146a.5.5 0 01.708-.708l4 4a.5.5 0 010 .708l-4 4a.5.5 0 01-.708-.708L16.293 13H7.5a.5.5 0 110-1h8.793zm3.207 9a1.5 1.5 0 001.5-1.5v-14A1.5 1.5 0 0019.5 4H5.493a1.5 1.5 0 00-1.5 1.5L4 19.5A1.5 1.5 0 005.5 21h14zM3 19.5l-.007-14a2.5 2.5 0 012.5-2.5H19.5A2.5 2.5 0 0122 5.5v14a2.5 2.5 0 01-2.5 2.5h-14A2.508 2.508 0 013 19.5z"/></symbol><symbol viewBox="0 0 24 24" id="icon-arrow-square-up"><path d="M13 8.707V17.5a.5.5 0 11-1 0V8.707l-3.146 3.147a.5.5 0 01-.708-.708l4-4a.5.5 0 01.708 0l4 4a.5.5 0 01-.708.708L13 8.707zM21 5.5A1.5 1.5 0 0019.5 4h-14A1.5 1.5 0 004 5.5v14.007a1.5 1.5 0 001.5 1.5l14-.007a1.5 1.5 0 001.5-1.5v-14zM19.5 22l-14 .007a2.5 2.5 0 01-2.5-2.5V5.5A2.5 2.5 0 015.5 3h14A2.5 2.5 0 0122 5.5v14a2.508 2.508 0 01-2.5 2.5z"/></symbol><symbol viewBox="0 0 24 24" id="icon-arrow-to-top"><path d="M13 5.707V16.5a.5.5 0 11-1 0V5.707L8.854 8.854a.5.5 0 11-.708-.708l4-4a.5.5 0 01.708 0l4 4a.5.5 0 01-.708.708L13 5.707zM4.5 20a.5.5 0 110-1h16a.5.5 0 110 1h-16z"/></symbol><symbol viewBox="0 0 24 24" id="icon-arrow-top-left"><path d="M7 7.707V12.5a.5.5 0 11-1 0v-6a.5.5 0 01.5-.5h6a.5.5 0 110 1H7.707l10.147 10.146a.5.5 0 01-.708.708L7 7.707z"/></symbol><symbol viewBox="0 0 24 24" id="icon-arrow-top-right"><path d="M16.293 7H11.5a.5.5 0 110-1h6a.5.5 0 01.5.5v6a.5.5 0 11-1 0V7.707L6.854 17.854a.5.5 0 01-.708-.708L16.293 7z"/></symbol><symbol viewBox="0 0 24 24" id="icon-arrow-up"><path d="M13 7.707V17.5a.5.5 0 11-1 0V7.707l-3.146 3.147a.5.5 0 01-.708-.708l4-4a.5.5 0 01.708 0l4 4a.5.5 0 01-.708.708L13 7.707z"/></symbol><symbol viewBox="0 0 24 24" id="icon-back"><path d="M4.707 16l3.147 3.146a.5.5 0 01-.708.708l-4-4a.5.5 0 010-.708l4-4a.5.5 0 01.708.708L4.707 15H18.5a1.5 1.5 0 001.5-1.5v-6A1.5 1.5 0 0018.5 6h-15a.5.5 0 010-1h15A2.5 2.5 0 0121 7.5v6a2.5 2.5 0 01-2.5 2.5H4.707z"/></symbol><symbol viewBox="0 0 24 24" id="icon-chevron-double-down"><path d="M15.175 8.12a.5.5 0 01.65.76l-3.5 3a.5.5 0 01-.65 0l-3.5-3a.5.5 0 11.65-.76L12 10.841l3.175-2.72zm0 4a.5.5 0 01.65.76l-3.5 3a.5.5 0 01-.65 0l-3.5-3a.5.5 0 01.65-.76L12 14.841l3.175-2.72z"/></symbol><symbol viewBox="0 0 24 24" id="icon-chevron-double-left"><path d="M15.88 15.175a.5.5 0 01-.76.65l-3-3.5a.5.5 0 010-.65l3-3.5a.5.5 0 01.76.65L13.159 12l2.72 3.175zm-4 0a.5.5 0 01-.76.65l-3-3.5a.5.5 0 010-.65l3-3.5a.5.5 0 01.76.65L9.159 12l2.72 3.175z"/></symbol><symbol viewBox="0 0 24 24" id="icon-chevron-double-right"><path d="M12.12 8.825a.5.5 0 11.76-.65l3 3.5a.5.5 0 010 .65l-3 3.5a.5.5 0 01-.76-.65L14.841 12l-2.72-3.175zm-4 0a.5.5 0 11.76-.65l3 3.5a.5.5 0 010 .65l-3 3.5a.5.5 0 11-.76-.65L10.841 12l-2.72-3.175z"/></symbol><symbol viewBox="0 0 24 24" id="icon-chevron-double-up"><path d="M8.825 11.88a.5.5 0 11-.65-.76l3.5-3a.5.5 0 01.65 0l3.5 3a.5.5 0 01-.65.76L12 9.159l-3.175 2.72zm0 4a.5.5 0 11-.65-.76l3.5-3a.5.5 0 01.65 0l3.5 3a.5.5 0 01-.65.76L12 13.159l-3.175 2.72z"/></symbol><symbol viewBox="0 0 24 24" id="icon-chevron-down"><path d="M15.175 10.12a.5.5 0 01.65.76l-3.5 3a.5.5 0 01-.65 0l-3.5-3a.5.5 0 01.65-.76L12 12.841l3.175-2.72z"/></symbol><symbol viewBox="0 0 24 24" id="icon-chevron-left"><path d="M13.88 15.175a.5.5 0 01-.76.65l-3-3.5a.5.5 0 010-.65l3-3.5a.5.5 0 01.76.65L11.159 12l2.72 3.175z"/></symbol><symbol viewBox="0 0 24 24" id="icon-chevron-right"><path d="M12.841 12l-2.72-3.175a.5.5 0 11.759-.65l3 3.5a.5.5 0 010 .65l-3 3.5a.5.5 0 01-.76-.65L12.841 12z"/></symbol><symbol viewBox="0 0 24 24" id="icon-chevron-up"><path d="M8.825 13.88a.5.5 0 11-.65-.76l3.5-3a.5.5 0 01.65 0l3.5 3a.5.5 0 01-.65.76L12 11.159l-3.175 2.72z"/></symbol><symbol viewBox="0 0 24 24" id="icon-collapse"><path d="M8.293 15H3.5a.5.5 0 110-1h6a.5.5 0 01.5.5v6a.5.5 0 11-1 0v-4.793l-5.146 5.147a.5.5 0 01-.708-.708L8.293 15zm7.414-6H20.5a.5.5 0 110 1h-6a.5.5 0 01-.5-.5v-6a.5.5 0 111 0v4.793l5.146-5.147a.5.5 0 01.708.708L15.707 9z"/></symbol><symbol viewBox="0 0 24 24" id="icon-collapse-alt"><path d="M8.293 15H3.5a.5.5 0 110-1h6a.5.5 0 01.5.5v6a.5.5 0 11-1 0v-4.793l-5.146 5.147a.5.5 0 01-.708-.708L8.293 15zM9 8.293V3.5a.5.5 0 011 0v6a.5.5 0 01-.5.5h-6a.5.5 0 010-1h4.793L3.146 3.854a.5.5 0 11.708-.708L9 8.293zM15.707 9H20.5a.5.5 0 110 1h-6a.5.5 0 01-.5-.5v-6a.5.5 0 111 0v4.793l5.146-5.147a.5.5 0 01.708.708L15.707 9zm0 6l5.147 5.146a.5.5 0 01-.708.708L15 15.707v4.814a.5.5 0 11-1 0V14.5a.5.5 0 01.5-.5h6a.5.5 0 110 1h-4.793z"/></symbol><symbol viewBox="0 0 24 24" id="icon-collapse-alt2"><path d="M8.293 13H1.5a.5.5 0 110-1h6.793L6.146 9.854a.5.5 0 11.708-.708l3 3a.5.5 0 010 .708l-3 3a.5.5 0 01-.708-.708L8.293 13zM12 16.707l-2.146 2.147a.5.5 0 01-.708-.708l3-3a.5.5 0 01.708 0l3 3a.5.5 0 01-.708.708L13 16.707V22.5a.5.5 0 11-1 0v-5.793zM16.707 12H22.5a.5.5 0 110 1h-5.793l2.147 2.146a.5.5 0 01-.708.708l-3-3a.5.5 0 010-.708l3-3a.5.5 0 01.708.708L16.707 12zM12 8.293V2.5a.5.5 0 111 0v5.793l2.146-2.147a.5.5 0 01.708.708l-3 3a.5.5 0 01-.708 0l-3-3a.5.5 0 11.708-.708L12 8.293z"/></symbol><symbol viewBox="0 0 24 24" id="icon-collapse-down"><path d="M11 15.293V4.5a.5.5 0 111 0v10.793l3.146-3.147a.5.5 0 01.708.708l-4 4a.5.5 0 01-.708 0l-4-4a.5.5 0 01.708-.708L11 15.293zM4.5 20a.5.5 0 110-1h14a.5.5 0 110 1h-14z"/></symbol><symbol viewBox="0 0 24 24" id="icon-collapse-left"><path d="M8.707 12H19.5a.5.5 0 110 1H8.707l3.147 3.146a.5.5 0 01-.708.708l-4-4a.5.5 0 010-.708l4-4a.5.5 0 01.708.708L8.707 12zM4 5.5a.5.5 0 011 0v14a.5.5 0 11-1 0v-14z"/></symbol><symbol viewBox="0 0 24 24" id="icon-collapse-right"><path d="M15.293 12l-3.147-3.146a.5.5 0 01.708-.708l4 4a.5.5 0 010 .708l-4 4a.5.5 0 01-.708-.708L15.293 13H4.5a.5.5 0 110-1h10.793zM19 5.5a.5.5 0 111 0v14a.5.5 0 11-1 0v-14z"/></symbol><symbol viewBox="0 0 24 24" id="icon-collapse-up"><path d="M13 8.707V19.5a.5.5 0 11-1 0V8.707l-3.146 3.147a.5.5 0 01-.708-.708l4-4a.5.5 0 01.708 0l4 4a.5.5 0 01-.708.708L13 8.707zM5.5 5a.5.5 0 010-1h14a.5.5 0 110 1h-14z"/></symbol><symbol viewBox="0 0 24 24" id="icon-continue"><path d="M19.293 7l-2.147-2.146a.5.5 0 01.708-.708l3 3a.5.5 0 010 .708l-3 3a.5.5 0 01-.708-.708L19.293 8H5.5A1.5 1.5 0 004 9.5v6A1.5 1.5 0 005.5 17h5a.5.5 0 110 1h-5A2.5 2.5 0 013 15.5v-6A2.5 2.5 0 015.5 7h13.793z"/></symbol><symbol viewBox="0 0 24 24" id="icon-expand"><path d="M4.707 20H7.5a.5.5 0 110 1h-4a.5.5 0 01-.5-.5v-4a.5.5 0 111 0v2.793l5.146-5.147a.5.5 0 01.708.708L4.707 20zM19.293 4H16.5a.5.5 0 110-1h4a.5.5 0 01.5.5v4.031a.5.5 0 11-1 0V4.707l-5.146 5.147a.5.5 0 01-.708-.708L19.293 4z"/></symbol><symbol viewBox="0 0 24 24" id="icon-expand-alt"><path d="M20 19.293V16.5a.5.5 0 111 0v4a.5.5 0 01-.5.5h-4a.5.5 0 110-1h2.793l-5.147-5.146a.5.5 0 01.708-.708L20 19.293zM4 4.707V7.5a.5.5 0 01-1 0v-4a.5.5 0 01.5-.5h4a.5.5 0 010 1H4.707l5.147 5.146a.5.5 0 01-.708.708L4 4.707zM4.707 20H7.5a.5.5 0 110 1h-4a.5.5 0 01-.5-.5v-4a.5.5 0 111 0v2.793l5.146-5.147a.5.5 0 01.708.708L4.707 20zM19.293 4H16.5a.5.5 0 110-1h4a.5.5 0 01.5.5v4.031a.5.5 0 11-1 0V4.707l-5.146 5.147a.5.5 0 01-.708-.708L19.293 4z"/></symbol><symbol viewBox="0 0 24 24" id="icon-expand-alt2"><path d="M13 21.293l2.146-2.147a.5.5 0 01.708.708l-3 3a.5.5 0 01-.708 0l-3-3a.5.5 0 01.708-.708L12 21.293V15.5a.5.5 0 111 0v5.793zM3.707 13l2.147 2.146a.5.5 0 01-.708.708l-3-3a.5.5 0 010-.708l3-3a.5.5 0 11.708.708L3.707 12H9.5a.5.5 0 110 1H3.707zm17.586-1l-2.147-2.146a.5.5 0 01.708-.708l3 3a.5.5 0 010 .708l-3 3a.5.5 0 01-.708-.708L21.293 13H15.5a.5.5 0 110-1h5.793zM13 3.707V9.5a.5.5 0 11-1 0V3.707L9.854 5.854a.5.5 0 11-.708-.708l3-3a.5.5 0 01.708 0l3 3a.5.5 0 01-.708.708L13 3.707z"/></symbol><symbol viewBox="0 0 24 24" id="icon-expand-down"><path d="M13 18.293l3.146-3.147a.5.5 0 01.708.708l-4 4a.5.5 0 01-.708 0l-4-4a.5.5 0 01.708-.708L12 18.293V7.5a.5.5 0 111 0v10.793zM4.5 5a.5.5 0 010-1h16a.5.5 0 110 1h-16z"/></symbol><symbol viewBox="0 0 24 24" id="icon-expand-h"><path d="M17.293 12H6.707l3.147 3.146a.5.5 0 01-.708.708l-4-4a.5.5 0 010-.708l4-4a.5.5 0 11.708.708L6.707 11h10.586l-3.147-3.146a.5.5 0 01.708-.708l4 4a.5.5 0 010 .708l-4 4a.5.5 0 01-.708-.708L17.293 12zM20 3.5a.5.5 0 111 0v16a.5.5 0 11-1 0v-16zm-17 0a.5.5 0 011 0v16a.5.5 0 11-1 0v-16z"/></symbol><symbol viewBox="0 0 24 24" id="icon-expand-left"><path d="M5.707 12l3.147 3.146a.5.5 0 01-.708.708l-4-4a.5.5 0 010-.708l4-4a.5.5 0 11.708.708L5.707 11H16.5a.5.5 0 110 1H5.707zM19 3.5a.5.5 0 111 0v16a.5.5 0 11-1 0v-16z"/></symbol><symbol viewBox="0 0 24 24" id="icon-expand-right"><path d="M18.293 12H7.5a.5.5 0 110-1h10.793l-3.147-3.146a.5.5 0 01.708-.708l4 4a.5.5 0 010 .708l-4 4a.5.5 0 01-.708-.708L18.293 12zM4 3.5a.5.5 0 011 0v16a.5.5 0 11-1 0v-16z"/></symbol><symbol viewBox="0 0 24 24" id="icon-expand-up"><path d="M12 5.707L8.854 8.854a.5.5 0 11-.708-.708l4-4a.5.5 0 01.708 0l4 4a.5.5 0 01-.708.708L13 5.707V16.5a.5.5 0 11-1 0V5.707zM5.5 20a.5.5 0 110-1h14a.5.5 0 110 1h-14z"/></symbol><symbol viewBox="0 0 24 24" id="icon-expand-v"><path d="M12 6.707L8.854 9.854a.5.5 0 01-.708-.708l4-4a.5.5 0 01.708 0l4 4a.5.5 0 01-.708.708L13 6.707v10.586l3.146-3.147a.5.5 0 01.708.708l-4 4a.5.5 0 01-.708 0l-4-4a.5.5 0 01.708-.708L12 17.293V6.707zM5.5 21a.5.5 0 110-1h14a.5.5 0 110 1h-14zm0-17a.5.5 0 010-1h14a.5.5 0 110 1h-14z"/></symbol><symbol viewBox="0 0 24 24" id="icon-loop"><path d="M4.707 18l2.147 2.146a.5.5 0 01-.708.708l-3-3a.5.5 0 010-.708l3-3a.5.5 0 01.708.708L4.707 17H18.5a1.5 1.5 0 001.5-1.5v-3a.5.5 0 111 0v3a2.5 2.5 0 01-2.5 2.5H4.707zM19.293 7l-2.147-2.146a.5.5 0 01.708-.708l3 3a.5.5 0 010 .708l-3 3a.5.5 0 01-.708-.708L19.293 8H5.5A1.5 1.5 0 004 9.5v3a.5.5 0 11-1 0v-3A2.5 2.5 0 015.5 7h13.793z"/></symbol><symbol viewBox="0 0 24 24" id="icon-prioritize-down"><path d="M9.293 18H5.5A2.5 2.5 0 013 15.5v-6A2.5 2.5 0 015.5 7h4a.5.5 0 010 1h-4A1.5 1.5 0 004 9.5v6A1.5 1.5 0 005.5 17h3.793l-2.147-2.146a.5.5 0 01.708-.708l3 3a.5.5 0 010 .708l-3 3a.5.5 0 01-.708-.708L9.293 18zM13.5 8a.5.5 0 110-1h7a.5.5 0 110 1h-7zm0 5a.5.5 0 110-1h7a.5.5 0 110 1h-7zm0 5a.5.5 0 110-1h7a.5.5 0 110 1h-7z"/></symbol><symbol viewBox="0 0 24 24" id="icon-prioritize-up"><path d="M9.293 7L7.146 4.854a.5.5 0 11.708-.708l3 3a.5.5 0 010 .708l-3 3a.5.5 0 01-.708-.708L9.293 8H5.5A1.5 1.5 0 004 9.5v6A1.5 1.5 0 005.5 17h5a.5.5 0 110 1h-5A2.5 2.5 0 013 15.5v-6A2.5 2.5 0 015.5 7h3.793zM13.5 8a.5.5 0 110-1h7a.5.5 0 110 1h-7zm0 5a.5.5 0 110-1h7a.5.5 0 110 1h-7zm0 5a.5.5 0 110-1h7a.5.5 0 110 1h-7z"/></symbol><symbol viewBox="0 0 24 24" id="icon-redo"><path d="M19 6.5a.5.5 0 111 0v5a.5.5 0 01-.5.5h-5a.5.5 0 110-1H19V6.5zM4 17.501a.5.5 0 01-1-.002c.003-1.236.007-1.881.014-2C3.274 10.743 7.216 7 12 7h.283a9.01 9.01 0 017.641 4.235.5.5 0 01-.848.53A8.01 8.01 0 0012.283 8H12a8 8 0 00-7.988 7.554c-.005.09-.01.76-.012 1.947z"/></symbol><symbol viewBox="0 0 24 24" id="icon-refresh-double"><path d="M17 18.246a8 8 0 00-4.505-14.23.5.5 0 11.061-1C17.29 3.307 21 7.237 21 12a8.986 8.986 0 01-3.342 7H20.5a.5.5 0 110 1h-4a.5.5 0 01-.5-.5v-4a.5.5 0 111 0v2.746zM7 5.754a8 8 0 004.54 14.233.5.5 0 01-.056.998C6.734 20.717 3 16.778 3 12a8.986 8.986 0 013.342-7H3.5a.5.5 0 010-1h4a.5.5 0 01.5.5v4a.5.5 0 01-1 0V5.754z"/></symbol><symbol viewBox="0 0 24 24" id="icon-refresh-left"><path d="M5 6.342A9 9 0 1112 21c-4.765 0-8.696-3.713-8.983-8.447a.5.5 0 01.998-.06A8 8 0 105.755 7H8.5a.5.5 0 010 1h-4a.5.5 0 01-.5-.5v-4a.5.5 0 011 0v2.842z"/></symbol><symbol viewBox="0 0 24 24" id="icon-refresh-right"><path d="M19 6.342V3.5a.5.5 0 111 0v4a.5.5 0 01-.5.5h-4a.5.5 0 110-1h2.746a8 8 0 101.74 5.492.5.5 0 01.997.061C20.696 17.287 16.765 21 12 21a9 9 0 117-14.658z"/></symbol><symbol viewBox="0 0 24 24" id="icon-restart"><path d="M9.293 8H5.5A1.5 1.5 0 004 9.5v6A1.5 1.5 0 005.5 17h13a1.5 1.5 0 001.5-1.5v-6A1.5 1.5 0 0018.5 8h-4a.5.5 0 110-1h4A2.5 2.5 0 0121 9.5v6a2.5 2.5 0 01-2.5 2.5h-13A2.5 2.5 0 013 15.5v-6A2.5 2.5 0 015.5 7h3.793L7.146 4.854a.5.5 0 11.708-.708l3 3a.5.5 0 010 .708l-3 3a.5.5 0 01-.708-.708L9.293 8z"/></symbol><symbol viewBox="0 0 24 24" id="icon-split-h"><path d="M11 19.293V14H3.5a.5.5 0 110-1h16a.5.5 0 110 1H12v5.293l3.146-3.147a.5.5 0 01.708.708l-4 4a.5.5 0 01-.708 0l-4-4a.5.5 0 01.708-.708L11 19.293zm1-14.586V10h7.5a.5.5 0 110 1h-16a.5.5 0 110-1H11V4.707L7.854 7.854a.5.5 0 11-.708-.708l4-4a.5.5 0 01.708 0l4 4a.5.5 0 01-.708.708L12 4.707z"/></symbol><symbol viewBox="0 0 24 24" id="icon-split-v"><path d="M19.293 12H14v7.5a.5.5 0 11-1 0v-16a.5.5 0 111 0V11h5.293l-3.147-3.146a.5.5 0 01.708-.708l4 4a.5.5 0 010 .708l-4 4a.5.5 0 01-.708-.708L19.293 12zM4.707 11H10V3.5a.5.5 0 111 0v16a.5.5 0 11-1 0V12H4.707l3.147 3.146a.5.5 0 01-.708.708l-4-4a.5.5 0 010-.708l4-4a.5.5 0 11.708.708L4.707 11z"/></symbol><symbol viewBox="0 0 24 24" id="icon-undo"><path d="M3.924 11.765a.5.5 0 01-.848-.53A9.01 9.01 0 0110.717 7H11c4.784 0 8.725 3.743 8.986 8.5.007.118.011.763.014 1.999a.5.5 0 01-1 .002 115.502 115.502 0 00-.012-1.947A8 8 0 0011 8h-.283a8.01 8.01 0 00-6.793 3.765zM8.5 11a.5.5 0 110 1h-5a.5.5 0 01-.5-.5v-5a.5.5 0 011 0V11h4.5z"/></symbol></svg>