<?xml version="1.0" encoding="UTF-8"?><svg version="1.1" viewBox="0 0 32 32" xmlns="http://www.w3.org/2000/svg"><path fill="#000" d="M13.317 6.217c-5.39 0-9.767 4.367-9.767 9.767 0 5.384 4.38 9.767 9.767 9.767 5.4 0 9.767-4.39 9.767-9.767 0-5.4-4.37-9.767-9.767-9.767Zm-2.22 15.53c-2.317-.89-3.97-3.14-3.97-5.77 0-2.64 1.65-4.89 3.96-5.79Zm4.43.01V10.19c2.31.9 3.96 3.15 3.96 5.78 0 2.63-1.65 4.88-3.97 5.78ZM29.32 3.54H2.66C1.18 3.54-.01 4.73-.01 6.2V25.76c0 1.47 1.19 2.66 2.66 2.66h26.667c1.47 0 2.66-1.2 2.66-2.67V6.19c0-1.48-1.2-2.67-2.67-2.67ZM18.307 26.65h-5.02C7.38 26.65 2.52 21.9 2.52 16.09 2.52 9.72 7.38 5.32 13.28 5.32h5.01c5.83 0 11.15 4.4 11.15 10.767 0 5.817-5.317 10.567-11.15 10.567Z"/></svg>