<?xml version="1.0" encoding="UTF-8"?><svg version="1.1" viewBox="0 0 32 32" xmlns="http://www.w3.org/2000/svg"><path fill="#000" d="M23.26 11.49c-.52-.2-1.33-.41-2.33-.41 -2.56 0-4.37 1.29-4.375 3.141 -.03 1.359 1.28 2.12 2.26 2.583 1.01.46 1.34.76 1.34 1.17 -.01.64-.81.92-1.55.92 -1.03 0-1.59-.14-2.45-.5l-.32-.16 -.37 2.13c.625.25 1.74.47 2.9.5 2.724 0 4.5-1.29 4.52-3.26 .02-1.09-.68-1.91-2.17-2.583 -.9-.44-1.46-.74-1.46-1.19 0-.4.47-.82 1.47-.82 .85-.02 1.46.17 1.93.359l.24.1 .35-2.06Zm6.64-.23h-2c-.625 0-1.09.16-1.37.78l-3.85 8.71h2.71l.54-1.43 3.317 0c.08.33.31 1.42.31 1.42h2.4Zm-17.027-.08h2.58l-1.62 9.504h-2.59l1.62-9.509Zm-6.59 5.234l.26 1.32 2.53-6.48h2.74L7.72 20.738H4.98l-2.24-8.04c-.05-.14-.11-.24-.25-.32 -.76-.4-1.604-.72-2.541-.95l.03-.2h4.177c.56.02 1.021.19 1.17.8l.91 4.36Zm20.406.97l1.03-2.67c-.02.02.21-.55.34-.907l.17.81 .6 2.74H26.67Z"/></svg>