<svg width="0" height="0" class="hidden">
  <symbol xmlns="http://www.w3.org/2000/svg" viewBox="0 0 64 64" id="speech-bubble-1">
    <title>Speech Bubble</title>
    <desc>A solid styled icon from Orion Icon Library.</desc>
    <path data-name="layer1"
    d="M42 7H22a20 20 0 0 0 0 40h2v10l12-10h6a20 20 0 0 0 0-40z" fill="#202020"></path>
  </symbol>
  <symbol xmlns="http://www.w3.org/2000/svg" viewBox="0 0 64 64" id="speech-bubble-2">
    <title>Speech Bubble</title>
    <desc>A line styled icon from Orion Icon Library.</desc>
    <path data-name="layer1"
    d="M42 8H22a20 20 0 0 0 0 40h2v10l12-10h6a20 20 0 1 0 0-40z" fill="none"
    stroke="#202020" stroke-miterlimit="10" stroke-width="2" stroke-linejoin="round"
    stroke-linecap="round"></path>
  </symbol>
  <symbol xmlns="http://www.w3.org/2000/svg" viewBox="0 0 64 64" id="time-1">
    <title>Time</title>
    <desc>A line styled icon from Orion Icon Library.</desc>
    <circle data-name="layer2"
    cx="32" cy="32" r="30" fill="none" stroke="#202020" stroke-linecap="round"
    stroke-miterlimit="10" stroke-width="2" stroke-linejoin="round"></circle>
    <path data-name="layer1" fill="none" stroke="#202020" stroke-linecap="round"
    stroke-miterlimit="10" stroke-width="2" d="M32 10v23l13 7" stroke-linejoin="round"></path>
  </symbol>
  <symbol xmlns="http://www.w3.org/2000/svg" viewBox="0 0 64 64" id="time-limit-1">
    <title>Time Limit</title>
    <desc>A line styled icon from Orion Icon Library.</desc>
    <path data-name="layer2"
    fill="none" stroke="#202020" stroke-linecap="round" stroke-miterlimit="10"
    stroke-width="2" d="M54 6v10H44M32 59a27 27 0 1 1 21.751-43m-8.766 39.678A26.819 26.819 0 0 1 38 58.331M53.751 48a27.159 27.159 0 0 1-4.711 4.945m8.751-12.932a26.821 26.821 0 0 1-1.58 3.952"
    stroke-linejoin="round"></path>
    <circle data-name="layer1" cx="32" cy="32" r="3" fill="none" stroke="#202020"
    stroke-linecap="round" stroke-miterlimit="10" stroke-width="2" stroke-linejoin="round"></circle>
    <path data-name="layer1" fill="none" stroke="#202020" stroke-linecap="round"
    stroke-miterlimit="10" stroke-width="2" d="M33.961 34.261L44 42M32 12v17"
    stroke-linejoin="round"></path>
  </symbol>
</svg>